<?xml version="1.0" encoding="utf-8"?>
<svg version="1.0" width="3rem" height="3rem" viewBox="0 0 248.368 290" preserveAspectRatio="xMidYMid meet" xmlns="http://www.w3.org/2000/svg">
<defs/>
<g transform="translate(0.000000,290.000000) scale(0.100000,-0.100000)" fill="white" stroke="white">
	<path d="M1135 2839 l-100 -9 -37 -42 c-117 -135 -214 -397 -248 -668 -9 -78&#10;-12 -376 -3 -320 44 262 244 605 518 887 63 65 115 125 115 134 0 31 -47 35&#10;-245 18z"/>
	<path d="M1925 2566 c-359 -148 -658 -390 -914 -738 -23 -32 -39 -58 -36 -58&#10;3 0 31 21 63 47 95 78 200 141 357 218 223 109 444 184 700 240 119 26 143 41&#10;123 79 -33 61 -180 246 -195 246 -10 -1 -54 -16 -98 -34z"/>
	<path d="M371 2369 c-22 -24 -121 -243 -121 -268 0 -51 166 -230 308 -332 l44&#10;-32 -15 29 c-57 110 -120 356 -133 517 -5 70 -11 90 -25 97 -26 14 -36 12 -58&#10;-11z"/>
	<path d="M105 1708 c-2 -13 -9 -69 -15 -126 -12 -113 -7 -132 35 -132 29 0&#10;293 73 374 103 l63 24 -63 12 c-109 21 -247 71 -295 107 -52 40 -91 45 -99 12z"/>
	<path d="M1860 1680 c-308 -37 -887 -133 -860 -143 36 -13 1323 -188 1331&#10;-180 8 8 27 178 31 272 2 67 -8 71 -191 70 -86 -1 -226 -9 -311 -19z"/>
	<path d="M469 1298 c-68 -45 -155 -112 -193 -149 l-69 -67 8 -49 c16 -105 55&#10;-238 75 -255 21 -17 48 -14 62 6 4 6 24 61 44 121 39 115 113 293 170 408 19&#10;37 33 67 30 67 -2 0 -59 -37 -127 -82z"/>
	<path d="M920 1364 c0 -11 87 -132 163 -226 211 -262 466 -474 713 -590 80&#10;-37 117 -45 140 -30 19 12 186 215 197 240 16 35 -2 45 -158 92 -382 116 -739&#10;283 -966 452 -49 37 -89 64 -89 62z"/>
	<path d="M737 1285 c-10 -61 -8 -249 4 -371 28 -295 110 -533 244 -717 47 -64&#10;61 -78 79 -73 11 2 86 15 166 27 80 12 151 26 158 32 29 23 9 53 -116 181 -70&#10;72 -154 167 -187 211 -150 201 -261 431 -319 660 -22 87 -23 89 -29 50z"/>
</g>
</svg>