<?xml version="1.0" standalone="no"?>
<!DOCTYPE svg PUBLIC "-//W3C//DTD SVG 20010904//EN"
 "http://www.w3.org/TR/2001/REC-SVG-20010904/DTD/svg10.dtd">
<svg version="1.0" xmlns="http://www.w3.org/2000/svg"
 width="1562.000000pt" height="290.000000pt" viewBox="0 0 1562.000000 290.000000"
 preserveAspectRatio="xMidYMid meet">

<g transform="translate(0.000000,290.000000) scale(0.100000,-0.100000)"
fill="#ed0909" stroke="#ed0909">
<path d="M1135 2839 l-100 -9 -37 -42 c-117 -135 -214 -397 -248 -668 -9 -78
-12 -376 -3 -320 44 262 244 605 518 887 63 65 115 125 115 134 0 31 -47 35
-245 18z"/>
<path d="M1925 2566 c-359 -148 -658 -390 -914 -738 -23 -32 -39 -58 -36 -58
3 0 31 21 63 47 95 78 200 141 357 218 223 109 444 184 700 240 119 26 143 41
123 79 -33 61 -180 246 -195 246 -10 -1 -54 -16 -98 -34z"/>
<path d="M371 2369 c-22 -24 -121 -243 -121 -268 0 -51 166 -230 308 -332 l44
-32 -15 29 c-57 110 -120 356 -133 517 -5 70 -11 90 -25 97 -26 14 -36 12 -58
-11z"/>
<path d="M3379 2188 c0 -2 -80 -316 -178 -698 l-177 -695 534 -3 c295 -1 537
0 539 2 2 2 15 46 29 97 13 52 27 102 30 112 5 16 -20 17 -420 17 -255 0 -426
4 -426 9 0 5 65 263 145 574 80 310 145 569 145 575 0 8 -34 12 -110 12 -60 0
-110 -1 -111 -2z"/>
<path d="M6266 2179 c-64 -15 -155 -70 -197 -118 -22 -24 -52 -72 -68 -105
-16 -34 -76 -244 -135 -469 -86 -330 -106 -421 -106 -478 0 -85 24 -138 78
-173 67 -45 100 -47 567 -44 434 3 441 3 497 26 83 34 160 108 203 195 23 49
70 204 145 479 90 332 110 419 110 475 0 96 -27 146 -100 187 l-55 31 -450 2
c-252 1 -467 -3 -489 -8z m833 -243 c12 -11 21 -31 21 -48 0 -30 -172 -733
-192 -781 -6 -16 -27 -40 -46 -55 l-35 -27 -403 0 c-381 0 -403 1 -423 19 -12
11 -21 31 -21 48 0 29 172 732 191 780 14 34 49 67 85 78 16 5 203 8 415 7
365 -2 388 -3 408 -21z"/>
<path d="M9601 2174 c-123 -33 -204 -103 -260 -225 -18 -39 -83 -270 -166
-594 -75 -291 -138 -538 -141 -547 -5 -17 5 -18 118 -18 l123 0 74 293 c40
160 77 300 82 310 9 16 41 17 459 17 422 0 450 -1 450 -17 0 -10 -34 -148 -75
-306 -41 -159 -75 -291 -75 -293 0 -3 55 -3 122 -2 l121 3 137 545 c76 300
140 567 144 593 17 114 -41 210 -145 241 -75 23 -886 22 -968 0z m830 -225
c43 -23 41 -63 -12 -261 l-10 -38 -454 0 c-445 0 -455 0 -455 20 0 40 41 195
60 226 39 63 44 64 468 64 252 0 390 -4 403 -11z"/>
<path d="M14389 2167 c-78 -27 -139 -66 -178 -116 -61 -78 -88 -155 -195 -562
-86 -329 -106 -420 -106 -476 0 -96 26 -145 100 -187 l55 -31 439 -3 c282 -2
457 1 488 8 123 26 225 107 278 223 30 64 234 823 246 913 9 76 -16 154 -64
194 -70 58 -92 60 -566 60 -421 -1 -433 -1 -497 -23z m870 -231 c12 -11 21
-31 21 -45 0 -41 -196 -779 -214 -806 -40 -61 -32 -60 -472 -60 -381 0 -403 1
-423 19 -12 11 -21 31 -21 48 0 29 180 728 201 780 14 34 49 67 85 78 16 5
203 8 415 7 365 -2 388 -3 408 -21z"/>
<path d="M4507 1492 c-98 -378 -178 -690 -177 -695 0 -4 248 -6 552 -5 l552 3
32 110 31 110 -439 3 c-314 1 -438 5 -438 13 0 7 21 94 47 195 l47 184 425 2
425 3 22 90 c13 50 26 100 29 113 l5 22 -420 0 c-231 0 -420 3 -420 6 0 9 60
246 71 281 l10 33 442 2 441 3 27 108 27 107 -557 0 -556 0 -178 -688z"/>
<path d="M7710 2176 c0 -2 -81 -313 -180 -690 -99 -378 -180 -689 -180 -692 0
-2 45 -4 100 -4 l99 0 10 38 c6 20 64 246 131 502 66 256 124 473 128 483 6
15 92 -89 417 -502 l409 -521 61 0 60 0 183 688 c101 378 183 690 183 695 -1
4 -45 7 -98 7 l-98 0 -124 -485 c-69 -267 -129 -491 -133 -498 -6 -9 -10 -9
-15 -1 -5 7 -174 230 -378 497 l-370 486 -102 0 c-57 1 -103 -1 -103 -3z"/>
<path d="M10874 1487 l-181 -692 110 -3 c60 -1 112 -1 114 2 3 2 39 139 81
303 l77 298 267 3 268 2 5 -22 c2 -13 21 -138 40 -278 20 -140 38 -267 41
-282 l6 -28 119 0 c119 0 119 0 114 23 -7 33 -85 554 -85 571 0 9 19 19 50 26
66 16 162 79 201 132 76 105 133 294 127 429 -2 70 -7 93 -24 116 -27 36 -77
70 -123 83 -22 6 -230 10 -531 10 l-495 0 -181 -693z m1105 449 c28 -25 27
-66 -4 -164 -27 -85 -52 -117 -106 -132 -19 -6 -184 -10 -376 -10 -314 0 -343
1 -343 17 0 16 50 212 71 281 l11 33 363 -3 c341 -3 364 -4 384 -22z"/>
<path d="M12559 2178 c0 -2 -83 -313 -183 -693 l-181 -690 525 -3 c338 -2 548
1 590 8 144 24 248 104 315 245 36 74 193 650 221 809 27 151 -2 237 -96 290
l-55 31 -567 3 c-313 1 -568 1 -569 0z m971 -217 c63 -13 94 -51 87 -105 -12
-83 -179 -702 -200 -740 -27 -48 -61 -74 -113 -86 -21 -5 -216 -10 -433 -10
l-393 0 6 28 c24 98 238 908 242 914 7 11 747 9 804 -1z"/>
<path d="M105 1708 c-2 -13 -9 -69 -15 -126 -12 -113 -7 -132 35 -132 29 0
293 73 374 103 l63 24 -63 12 c-109 21 -247 71 -295 107 -52 40 -91 45 -99 12z"/>
<path d="M1860 1680 c-308 -37 -887 -133 -860 -143 36 -13 1323 -188 1331
-180 8 8 27 178 31 272 2 67 -8 71 -191 70 -86 -1 -226 -9 -311 -19z"/>
<path d="M469 1298 c-68 -45 -155 -112 -193 -149 l-69 -67 8 -49 c16 -105 55
-238 75 -255 21 -17 48 -14 62 6 4 6 24 61 44 121 39 115 113 293 170 408 19
37 33 67 30 67 -2 0 -59 -37 -127 -82z"/>
<path d="M920 1364 c0 -11 87 -132 163 -226 211 -262 466 -474 713 -590 80
-37 117 -45 140 -30 19 12 186 215 197 240 16 35 -2 45 -158 92 -382 116 -739
283 -966 452 -49 37 -89 64 -89 62z"/>
<path d="M737 1285 c-10 -61 -8 -249 4 -371 28 -295 110 -533 244 -717 47 -64
61 -78 79 -73 11 2 86 15 166 27 80 12 151 26 158 32 29 23 9 53 -116 181 -70
72 -154 167 -187 211 -150 201 -261 431 -319 660 -22 87 -23 89 -29 50z"/>
</g>
</svg>
