<?xml version="1.0" encoding="UTF-8" standalone="no"?>
<!-- Created with Inkscape (http://www.inkscape.org/) -->

<svg
   width="285.67999mm"
   height="184.21434mm"
   viewBox="43 109 124.20856 80.093183"
   version="1.1"
   id="svg1"
   xml:space="preserve"
   inkscape:version="1.3.2 (091e20e, 2023-11-25, custom)"
   sodipodi:docname="smile.svg"
   xmlns:inkscape="http://www.inkscape.org/namespaces/inkscape"
   xmlns:sodipodi="http://sodipodi.sourceforge.net/DTD/sodipodi-0.dtd"
   xmlns="http://www.w3.org/2000/svg"
   xmlns:svg="http://www.w3.org/2000/svg"><sodipodi:namedview
     id="namedview1"
     pagecolor="#ffffff"
     bordercolor="#000000"
     borderopacity="0.25"
     inkscape:showpageshadow="2"
     inkscape:pageopacity="0.0"
     inkscape:pagecheckerboard="0"
     inkscape:deskcolor="#d1d1d1"
     inkscape:document-units="mm"
     inkscape:zoom="0.71622834"
     inkscape:cx="358.82411"
     inkscape:cy="624.80074"
     inkscape:window-width="2560"
     inkscape:window-height="1351"
     inkscape:window-x="-9"
     inkscape:window-y="-9"
     inkscape:window-maximized="1"
     inkscape:current-layer="layer1" /><defs
     id="defs1" /><g
     inkscape:label="Layer 1"
     inkscape:groupmode="layer"
     id="layer1"><ellipse
       style="fill:#7491a6;fill-opacity:1;stroke-width:0.259969"
       id="ellipse5"
       cx="55.827389"
       cy="139.08362"
       rx="11.775007"
       ry="11.544125" /><path
       style="fill:#7491a6;fill-opacity:1;stroke-width:0.264583"
       d="m 45.252968,142.40832 c 0.1956,5.56389 11.082358,15.42295 11.082358,15.42295 l 9.697067,8.03471 c 0,0 11.705771,6.71187 18.101187,8.68118 6.486868,1.99747 13.34565,3.00495 20.13296,3.04765 7.17894,0.0452 14.45563,-0.89769 21.33353,-2.9553 7.2821,-2.17853 14.34958,-5.45661 20.59472,-9.78942 5.24647,-3.63995 9.70837,-8.39224 13.76108,-13.32684 1.29568,-1.57761 3.32423,-5.14375 3.32423,-5.14375 l -20.22531,-10.6206 c 0,0 -4.5544,4.98644 -7.29588,7.29589 -3.30682,2.78568 -11.00848,7.27837 -17.17766,9.42 -3.15548,1.09543 -6.55061,1.41666 -9.88177,1.66236 -3.16279,0.23328 -6.36692,0.22008 -9.512362,-0.18471 -3.517609,-0.45268 -7.014864,-1.26942 -10.343536,-2.49353 -2.816842,-1.03588 -5.483695,-2.4824 -8.034711,-4.06353 -2.579972,-1.59907 -5.064595,-3.391 -7.295888,-5.44882 -2.615409,-2.41207 -5.410944,-5.34197 -7.056599,-8.00815 -6.424186,-10.40806 -21.451455,1.41438 -21.203416,8.46991 z"
       id="path10"
       sodipodi:nodetypes="sccaaaaaccsaaaaaass" /><ellipse
       style="fill:#ffffff;fill-opacity:1;stroke-width:0.264583"
       id="path4"
       cx="154.27568"
       cy="139.49921"
       rx="12.052066"
       ry="11.682654" /><path
       style="fill:#7491a6;fill-opacity:1;stroke-width:0.264583"
       d="m 56.404592,157.90053 c 1.702311,1.77966 2.520296,2.4928 3.868678,3.64064 1.666437,1.41859 3.38005,2.7937 5.205003,4.00157 2.74153,1.81452 5.641006,3.39292 8.588829,4.84853 2.460964,1.21521 7.572945,3.23236 7.572945,3.23236 L 71.481219,156.44597 c 0,0 -18.428256,-2.04937 -15.076627,1.45456 z"
       id="path11"
       sodipodi:nodetypes="saaaccs" /></g></svg>
