<?xml version="1.0" encoding="utf-8"?>
<!-- Generator: Adobe Illustrator 26.0.1, SVG Export Plug-In . SVG Version: 6.00 Build 0)  -->
<svg version="1.1" id="Livello_1" xmlns="http://www.w3.org/2000/svg" xmlns:xlink="http://www.w3.org/1999/xlink" x="0px" y="0px"
	 viewBox="0 0 60 60" style="enable-background:new 0 0 60 60;" xml:space="preserve">
<style type="text/css">
	.st0{fill:#088F9C;}
</style>
<g>
	<path class="st0" d="M27.9,33.1C27.9,33.1,27.9,33.1,27.9,33.1C27.9,33.1,27.9,33.1,27.9,33.1L27.9,33.1z"/>
	<path class="st0" d="M40.1,45.7l-1.2-1.9c-0.1-0.1-0.2-0.2-0.3-0.3l-2-0.7l-3-1.9c-0.1-0.1-0.2-0.1-0.3-0.1h-2c0,0-0.1,0-0.1,0
		l-2,0.3c-0.1,0-0.2,0.1-0.4,0.2l-1.8,1.8c-0.1,0.1-0.2,0.2-0.2,0.3l-0.4,1.9c0,0.1,0,0.2,0,0.3l0.7,2.1c0.1,0.2,0.2,0.4,0.5,0.4
		l2.4,0.5l1.4,1l-0.6,2.8c0,0.2,0,0.3,0.1,0.5l1,1.7c0.1,0.2,0.3,0.3,0.6,0.3c0,0,0.1,0,0.1,0l1.8-0.3c0.2,0,0.3-0.1,0.4-0.2
		l2.2-2.8c0,0,0,0,0,0l1.5-2.2c0,0,0,0,0-0.1l1.6-3C40.2,46.2,40.2,45.9,40.1,45.7z M37.3,48.8l-1.5,2.2l-2,2.6l-1.1,0.2l-0.7-1.1
		l0.7-2.9c0.1-0.2,0-0.5-0.2-0.7l-1.8-1.4c-0.1-0.1-0.2-0.1-0.2-0.1l-2.1-0.5l-0.5-1.6l0.3-1.5l1.5-1.5l1.7-0.3h1.8L36,44
		c0,0,0.1,0,0.2,0.1l1.8,0.6l0.8,1.4L37.3,48.8z"/>
	<path class="st0" d="M48.2,40.8c0-9.8-7.8-17.8-17.4-18.1v-5.3c0-0.3,0-0.6,0-1v-3.1l5.4-5.3c0.1-0.1,0.2-0.3,0.2-0.5
		S36.2,7.2,36.1,7c-0.2-0.2-0.7-0.2-0.9,0l-4.4,4.4c0-1.8,0.4-4.9,2.3-6.8c2.3-2.3,6.3-2.3,7.7-2.3c0.1,1.4,0,5.4-2.3,7.7
		c-1,1-2.4,1.7-4.2,2c-0.3,0.1-0.6,0.4-0.5,0.8c0.1,0.4,0.4,0.6,0.8,0.5c2-0.4,3.7-1.2,4.8-2.4c3.3-3.3,2.6-9.1,2.6-9.3
		c0-0.3-0.3-0.5-0.6-0.6c-0.2,0-6-0.7-9.3,2.6c-2.1,2.1-2.6,5.2-2.7,7.3c-0.4-0.8-0.9-1.5-1.5-2.1c-3.4-3.3-9.3-2.7-9.5-2.7
		c-0.3,0-0.5,0.3-0.6,0.6c0,0.2-0.7,6.2,2.7,9.5c0.7,0.7,1.6,1.3,2.6,1.7c0.3,0.1,0.7,0,0.9-0.3c0.1-0.3,0-0.7-0.3-0.9
		c-0.9-0.4-1.6-0.9-2.2-1.4c-2.4-2.4-2.4-6.4-2.3-7.9c1.5-0.1,5.5,0,7.9,2.3c2,2,2.3,5.1,2.3,7v0l-6-6c-0.2-0.2-0.7-0.2-0.9,0
		c-0.1,0.1-0.2,0.3-0.2,0.5s0.1,0.3,0.2,0.5l6.9,6.9v4c-4.8,0.1-9.1,2.2-12.3,5.3c0,0-0.1,0.1-0.1,0.1c-3.2,3.3-5.2,7.8-5.2,12.7
		c0,0.8,0.1,1.5,0.1,2.3c0,0,0,0,0,0c0,0,0,0.1,0,0.1c0,0.1,0,0.2,0.1,0.3c0.5,3.2,1.9,6.2,3.9,8.7c0,0.2,0.2,0.5,0.5,0.5h0
		C19.7,56.6,24.6,59,30,59c3.1,0,6.1-0.8,8.8-2.3c0.3-0.2,0.4-0.6,0.2-0.9c-0.2-0.3-0.6-0.4-0.9-0.2c-2.5,1.4-5.3,2.1-8.2,2.1
		c-5.1,0-9.6-2.2-12.7-5.8l1.4-4.9c0-0.1,0-0.1,0-0.2c0-0.1,0-0.2-0.1-0.3L17.5,44c-0.1-0.2-0.2-0.3-0.5-0.3l-3.8-0.8
		c0-0.3-0.1-0.6-0.1-0.9l1.7-1.1l1.5-0.5c0.2-0.1,0.3-0.2,0.4-0.4l0.5-1.5l1.4-0.3c0.1,0,0.3-0.1,0.4-0.2l1.1-1.4
		c0.1-0.1,0.1-0.3,0.1-0.4c0,0,0-0.1,0-0.2l-0.4-1.7c0-0.1-0.1-0.2-0.1-0.2l-2.8-3.5c0.3-0.3,0.6-0.7,0.9-1l3.8,1.7
		c0.1,0,0.2,0.1,0.3,0.1c0.1,0,0.1,0,0.2,0l2.7-0.7c0,0,0,0,0.1,0l2.5-0.9c0.2-0.1,0.3-0.2,0.4-0.4l0.9-2.8c0-0.1,0-0.1,0-0.2
		c0-0.1,0-0.1,0-0.2l-0.6-1.7C28.5,24,29.3,24,30,24c3.8,0,7.3,1.3,10.1,3.4l-2,0.5l-2.1,0.4c-0.2,0-0.4,0.2-0.5,0.4l-1,2.2H32
		c-0.1,0-0.2,0-0.2,0c0,0-0.9,0.4-1.7,0.8c-1.8,0.8-2.1,0.9-2.1,1.4c0,0.3-0.4,1.9-0.7,3.4c0,0,0,0.1,0,0.1c0,0.1,0,0.2,0.1,0.4
		c0.1,0.2,0.2,0.2,0.4,0.3l3.1,0.6c0.1,0,0.1,0,0.2,0l5.1-0.6l4.8,3.1c0.1,0.1,0.2,0.1,0.3,0.1h3.3l2.2,3c-0.3,2.1-1.1,4.1-2.2,6
		c-0.2,0.3-0.1,0.7,0.2,0.9c0.3,0.2,0.7,0.1,0.9-0.2c1.2-2,2-4.1,2.3-6.4c0.1-0.1,0.1-0.2,0.1-0.3c0-0.1,0-0.1,0-0.2
		C48.1,42.5,48.2,41.7,48.2,40.8z M16.4,44.8l1,2.1l-1.1,3.8c-1.4-1.9-2.4-4.1-2.9-6.5L16.4,44.8z M18.6,34.5l0.3,1.3l-0.8,1
		l-1.5,0.4c-0.2,0-0.4,0.2-0.5,0.4l-0.5,1.5l-1.2,0.5c0,0-0.1,0-0.1,0.1l-1.1,0.7c0.1-3.3,1.1-6.3,2.9-8.9L18.6,34.5z M26.4,28.4
		l-2.1,0.8l-2.4,0.6l-3.1-1.4c2.2-2,4.9-3.4,7.9-4l0.6,1.7L26.4,28.4z M46.8,41.6l-1.5-2.1c-0.1-0.2-0.3-0.3-0.5-0.3h-3.4l-4.8-3.1
		C36.4,36,36.3,36,36.1,36l-5.2,0.6l-2.4-0.5c0.3-1.5,0.5-2.2,0.5-2.6c0.5-0.2,1.8-0.8,3-1.3H35c0.3,0,0.5-0.2,0.6-0.4l1.1-2.3
		l1.8-0.4c0,0,0,0,0,0l2.9-0.7c3.4,3.1,5.5,7.5,5.5,12.5C46.9,41.1,46.9,41.3,46.8,41.6z"/>
</g>
</svg>
