<?xml version="1.0" encoding="utf-8"?>
<!-- Generator: Adobe Illustrator 26.0.1, SVG Export Plug-In . SVG Version: 6.00 Build 0)  -->
<svg version="1.1" id="ICONE_x5F_piccole" xmlns="http://www.w3.org/2000/svg" xmlns:xlink="http://www.w3.org/1999/xlink" x="0px"
	 y="0px" viewBox="0 0 60 60" style="enable-background:new 0 0 60 60;" xml:space="preserve">
<style type="text/css">
	.st0{fill:#088F9C;}
</style>
<g>
	<path class="st0" d="M58.3,32.1c-0.5-0.7-1.3-1.2-2.2-1.3c-0.8-0.1-1.5,0-2.2,0.4L55.4,21c0-0.1,0-0.3,0-0.5c0-0.6-0.2-1.3-0.6-1.8
		c-0.5-0.7-1.2-1.1-2-1.2c-0.6-0.1-1.2,0-1.8,0.3l0.1-0.5c0-0.1,0-0.3,0-0.5c0-0.6-0.2-1.3-0.6-1.8c-0.5-0.7-1.2-1.1-2-1.2
		c-1.7-0.2-3.2,0.9-3.5,2.6l-0.5,3.1c0,0,0,0.1,0,0.1c0,0.3,0.2,0.6,0.6,0.6c0.4,0,0.7-0.2,0.8-0.5l0.5-3.1c0.1-0.9,1-1.6,2-1.5
		c0.5,0.1,0.9,0.3,1.2,0.7c0.2,0.3,0.3,0.7,0.3,1c0,0.1,0,0.2,0,0.3l-0.5,3l0,0l-2.1,13.8c0,0,0,0.1,0,0.1c0,0.3,0.2,0.6,0.6,0.7
		c0.4,0,0.7-0.2,0.8-0.5l1.7-11l0,0l0.4-2.8c0.1-0.5,0.3-0.9,0.7-1.1c0.4-0.3,0.8-0.4,1.3-0.3s0.9,0.3,1.2,0.7
		c0.2,0.3,0.3,0.7,0.3,1c0,0.1,0,0.2,0,0.3l-1.9,12.8l0,0l-0.7,4.8c-1.7-0.1-3.3,0.4-4.7,1.4c-1.5,1.1-2.5,2.8-2.8,4.7
		c0,0,0,0.1,0,0.1c0,0.3,0.2,0.6,0.6,0.7c0,0,0.1,0,0.1,0c0.3,0,0.6-0.2,0.7-0.6c0.2-1.5,1-2.9,2.3-3.8c1.3-0.9,2.8-1.3,4.4-1.1
		c0.4,0,0.7-0.2,0.8-0.5l0.6-4.1l0,0l0.2-1.3c0.2-1.1,1.2-1.9,2.3-1.7c0.5,0.1,1,0.4,1.4,0.8c0.3,0.4,0.4,0.8,0.4,1.2
		c0,0.1,0,0.2,0,0.3l-0.9,6c-0.3,2.2-3.3,4.7-6.5,7.4c-1.3,1.1-2.6,2.2-3.8,3.3l0,0l0,0c0,0,0,0,0,0c0,0,0,0,0,0.1s0,0,0,0.1
		s0,0,0,0L43.1,58c-0.2,0.3,0,0.7,0.3,0.9c0.1,0,0.2,0.1,0.3,0.1c0.2,0,0.5-0.1,0.6-0.4l3.1-6.6c1.1-1.1,2.4-2.1,3.6-3.2
		c3.4-2.8,6.5-5.5,7-8.2l0.9-6c0-0.2,0-0.3,0-0.5C58.9,33.4,58.7,32.7,58.3,32.1z"/>
	<path class="st0" d="M29.8,38.1c-0.4,0-0.7,0.3-0.7,0.7v19.5c0,0.4,0.3,0.7,0.7,0.7s0.7-0.3,0.7-0.7V38.8
		C30.5,38.4,30.2,38.1,29.8,38.1z"/>
	<path class="st0" d="M39.5,16.3c-2-1.6-4-2.8-4.9-3.2v-2.2c0.5-0.5,0.7-1.2,0.7-2V5.6c0-2.5-2.1-4.6-4.6-4.6H30
		c-2.6,0-4.6,2.1-4.6,4.6v3.3c0,0.7,0.3,1.4,0.7,2v2.2c-0.9,0.5-2.9,1.6-4.9,3.2c-0.7,0.6-1.1,1.5-1.1,2.4V35c0,0.4,0.3,0.7,0.7,0.7
		s0.7-0.3,0.7-0.7V18.8c0-0.6,0.2-1.1,0.6-1.4c2.3-1.9,4.7-3.1,5-3.2c0.2-0.1,0.4-0.3,0.4-0.6v-2.9c0-0.2-0.1-0.4-0.2-0.5
		c-0.3-0.3-0.5-0.8-0.5-1.2V5.6c0-1.8,1.5-3.3,3.3-3.3h0.8c1.8,0,3.3,1.5,3.3,3.3v3.3c0,0.5-0.2,0.9-0.5,1.2
		c-0.1,0.1-0.2,0.3-0.2,0.5v2.9c0,0.2,0.1,0.5,0.4,0.6c0.3,0.1,2.7,1.4,5,3.2c0.4,0.3,0.7,0.8,0.7,1.4v15.8c0,0.4,0.3,0.7,0.7,0.7
		s0.7-0.3,0.7-0.7V18.8C40.6,17.8,40.2,16.9,39.5,16.3z"/>
	<path class="st0" d="M1.7,32.2C2.3,31.4,3.1,31,4,30.8c0.8-0.1,1.5,0,2.2,0.4L4.6,21.1c0-0.1,0-0.3,0-0.5c0-0.6,0.2-1.3,0.6-1.8
		c0.5-0.7,1.2-1.1,2-1.2c0.6-0.1,1.2,0,1.8,0.3l-0.1-0.5c0-0.1,0-0.3,0-0.5c0-0.6,0.2-1.3,0.6-1.8c0.5-0.7,1.2-1.1,2-1.2
		c1.7-0.2,3.2,0.9,3.5,2.6l0.5,3.1c0,0,0,0.1,0,0.1c0,0.3-0.2,0.6-0.6,0.6c-0.4,0-0.7-0.2-0.8-0.5l-0.5-3.1c-0.1-0.9-1-1.6-2-1.5
		c-0.5,0.1-0.9,0.3-1.1,0.7c-0.2,0.3-0.3,0.7-0.3,1c0,0.1,0,0.2,0,0.3l0.4,3l0,0L12.7,34c0,0,0,0.1,0,0.1c0,0.3-0.2,0.6-0.6,0.7
		c-0.4,0-0.7-0.2-0.8-0.5l-1.7-11l0,0l-0.4-2.8c-0.1-0.5-0.3-0.9-0.7-1.1c-0.4-0.3-0.8-0.4-1.3-0.3c-0.5,0.1-0.9,0.3-1.1,0.7
		c-0.2,0.3-0.3,0.7-0.3,1c0,0.1,0,0.2,0,0.3l1.9,12.8l0,0l0.7,4.8c1.7-0.1,3.3,0.4,4.7,1.4c1.5,1.1,2.6,2.8,2.8,4.7c0,0,0,0.1,0,0.1
		c0,0.3-0.2,0.6-0.6,0.7c0,0-0.1,0-0.1,0c-0.3,0-0.6-0.2-0.6-0.6c-0.2-1.5-1.1-2.9-2.3-3.8c-1.3-0.9-2.8-1.3-4.4-1.1
		c-0.4,0-0.7-0.2-0.8-0.5l-0.6-4.1l0,0l-0.2-1.3c-0.2-1.1-1.2-1.9-2.3-1.7c-0.5,0.1-1,0.4-1.4,0.8c-0.3,0.4-0.4,0.8-0.4,1.2
		c0,0.1,0,0.2,0,0.3l0.9,6c0.3,2.2,3.3,4.7,6.5,7.4c1.3,1.1,2.6,2.2,3.8,3.3l0,0l0,0c0,0,0,0,0,0c0,0,0,0,0.1,0.1s0,0,0,0.1
		c0,0,0,0,0,0l3.2,6.7c0.1,0.3,0,0.7-0.3,0.9c-0.1,0-0.2,0.1-0.3,0.1c-0.2,0-0.5-0.1-0.6-0.4L12.6,52c-1.1-1.1-2.4-2.1-3.6-3.2
		c-3.4-2.8-6.6-5.5-7-8.2l-0.9-6c0-0.2,0-0.3,0-0.5C1.1,33.5,1.3,32.8,1.7,32.2z"/>
</g>
</svg>
