<?xml version="1.0" encoding="utf-8"?>
<!-- Generator: Adobe Illustrator 26.0.1, SVG Export Plug-In . SVG Version: 6.00 Build 0)  -->
<svg version="1.1" id="ICONE_x5F_piccole" xmlns="http://www.w3.org/2000/svg" xmlns:xlink="http://www.w3.org/1999/xlink" x="0px"
	 y="0px" viewBox="0 0 60 60" style="enable-background:new 0 0 60 60;" xml:space="preserve">
<style type="text/css">
	.st0{fill:#088F9C;}
</style>
<g>
	<path class="st0" d="M35.3,35.7c-0.2,1-0.2,11-0.2,12.2c0,0.4,0.3,0.7,0.7,0.7l0,0c0.4,0,0.7-0.3,0.7-0.7c0-4.3,0-11.3,0.1-12
		c0.8-4.2,4.4-7.3,8.7-7.3c0.7,0,1.4,0.1,2.1,0.2c0,0,0,0,0.1,0s5.7,0.8,6.5,7l0.1,12c0,0.4,0.3,0.7,0.7,0.7l0,0
		c0.4,0,0.7-0.3,0.7-0.7l-0.1-12c0,0,0,0,0-0.1c-0.8-6.9-7-8.1-7.5-8.2c-0.8-0.2-1.5-0.3-2.3-0.3C40.4,27.3,36.1,30.8,35.3,35.7z"/>
	<path class="st0" d="M50.5,38c-4.7,0-7.5-2.4-8.8-3.8c-0.3-0.4-0.8-0.5-1.3-0.3s-0.8,0.7-0.8,1.3v6.6c0,1.8,0.6,3.5,1.7,4.8
		c1.1,1.3,2.6,2,4.1,2s3-0.7,4.1-2s1.7-3,1.7-4.8v-3C51.2,38.3,50.9,38,50.5,38z M49.8,41.7c0,1.5-0.5,2.9-1.4,4
		c-0.8,1-1.9,1.5-3.1,1.5c-1.2,0-2.3-0.5-3.1-1.5c-0.9-1-1.4-2.5-1.4-3.9v-6.5c1.4,1.5,4.3,3.8,9,4V41.7z"/>
	<path class="st0" d="M51.9,48.9c-0.3-0.1-0.7-0.2-1-0.3s-0.6,0-0.8,0.3l-2.8,4.6c-0.7,0.9-1.4,1.4-2.1,1.4l0,0
		c-0.8,0-1.3-0.6-1.7-1.1l-3.3-4.9c-0.2-0.2-0.5-0.3-0.8-0.2s-0.7,0.2-1,0.3c-2.7,0.9-6.7,2.2-6.7,5.6v3.7c0,0.4,0.3,0.7,0.7,0.7
		s0.7-0.3,0.7-0.7v-3.7c0-2.4,3.4-3.5,5.8-4.4c0.2-0.1,0.4-0.1,0.6-0.2l3.1,4.5l0,0c0.8,1,1.8,1.6,2.8,1.6l0,0c0.8,0,2-0.3,3.2-1.9
		c0,0,0,0,0-0.1L51,50c0.2,0,0.3,0.1,0.5,0.2c2.5,0.8,6.2,2,6.2,4.7v3.4c0,0.4,0.3,0.7,0.7,0.7s0.7-0.3,0.7-0.7v-3.4
		C59,51.2,54.6,49.8,51.9,48.9z"/>
	<path class="st0" d="M25.2,49.5L21,48.7c-0.3-0.1-0.6,0.1-0.7,0.4l-2.6,6l-0.8-2.3l1.5-3.7c0.1-0.2,0.1-0.4-0.1-0.6
		c-0.1-0.2-0.3-0.3-0.5-0.3H12c-0.2,0-0.4,0.1-0.6,0.3s-0.1,0.4-0.1,0.6l1.5,3.7L12,54.9L9.4,49c-0.1-0.3-0.4-0.4-0.7-0.4l-4.2,0.8
		c-2,0.3-3.4,2-3.4,4v4.9C1,58.7,1.3,59,1.7,59s0.7-0.3,0.7-0.7v-4.9c0-1.3,1-2.5,2.3-2.7l0,0L8.4,50l3.7,8.5
		c0.1,0.3,0.5,0.5,0.9,0.3c0.3-0.1,0.5-0.5,0.3-0.9l-0.6-1.4l1.4-3.2h1.6l1.2,3.4c0,0,0,0,0,0.1L16.4,58c-0.1,0.3,0,0.7,0.3,0.9
		s0.7,0,0.9-0.3l3.7-8.4l3.7,0.7l0,0c1.3,0.2,2.3,1.3,2.3,2.7v4.9c0,0.4,0.3,0.7,0.7,0.7c0.4,0,0.6-0.3,0.6-0.7v-4.9
		C28.7,51.4,27.2,49.7,25.2,49.5z M15.7,52.1H14l-1-2.7h3.8L15.7,52.1z"/>
	<path class="st0" d="M14.9,27.3c-4.2,0-7.6,3.1-7.6,6.8v5.3c0,2,0.8,3.9,2.3,5.3c1.4,1.3,3.3,2.1,5.3,2.1s3.9-0.8,5.3-2.1
		c1.5-1.4,2.3-3.3,2.3-5.3v-5.3C22.5,30.4,19,27.3,14.9,27.3z M21.1,39.4c0,1.7-0.7,3.2-1.9,4.4c-1.1,1.1-2.7,1.7-4.4,1.7
		s-3.2-0.6-4.4-1.7c-1.2-1.2-1.9-2.7-1.9-4.4v-1.2c2.6-0.4,4.4-1.4,5.7-2.4c0.9,0.8,2.9,2.3,6.9,2.9L21.1,39.4L21.1,39.4z
		 M21.1,37.4c-3.4-0.5-5.2-1.8-5.9-2.4c1-1,1.4-1.9,1.5-2c0.1-0.3,0-0.7-0.3-0.9s-0.7,0-0.9,0.3c0,0.1-0.5,1-1.6,2l0,0l-0.1,0.1
		c-1.1,0.9-2.7,1.9-5.2,2.4v-2.7c0-3,2.8-5.5,6.3-5.5s6.3,2.5,6.3,5.5L21.1,37.4L21.1,37.4z"/>
	<path class="st0" d="M30,1c-4.2,0-7.6,3.1-7.6,6.8v5.3c0,2,0.8,3.9,2.3,5.3l0,0c1.4,1.3,3.3,2.1,5.3,2.1s3.9-0.8,5.3-2.1
		c1.5-1.4,2.3-3.3,2.3-5.3V7.9C37.6,4.1,34.2,1,30,1z M36.3,13.1c0,1.6-0.7,3.2-1.9,4.4c-1.2,1.1-2.8,1.7-4.4,1.7s-3.2-0.6-4.4-1.7
		l0,0c-1.2-1.2-1.9-2.7-1.9-4.4v-1.2c2.5-0.4,4.4-1.4,5.6-2.4c0.9,0.8,2.9,2.3,6.9,2.9L36.3,13.1L36.3,13.1z M36.3,11.1
		c-3.4-0.6-5.2-1.8-5.9-2.4c1-1,1.4-1.9,1.5-2c0.2-0.3,0-0.7-0.3-0.9c-0.3-0.2-0.7,0-0.9,0.3c0,0.1-0.5,1-1.6,2l0,0L29,8.2
		c-1.1,0.9-2.8,1.9-5.2,2.4V7.8c0-3.1,2.8-5.5,6.3-5.5s6.3,2.5,6.3,5.5L36.3,11.1L36.3,11.1z"/>
	<g>
		<path class="st0" d="M30.1,25.4c-2.5,0-3.4-1-4-1.7c-0.4-0.4-0.5-0.5-0.8-0.5v-0.1v0.1c-3.1,0.4-5.5,1.1-6,1.3
			c-0.2,0.1-0.9,0.4-0.9,0.4L18,23.8c0,0,0.7-0.3,0.9-0.4c0.7-0.3,3.1-1,6.3-1.4c1-0.2,1.5,0.4,1.9,0.8c0.5,0.6,1.1,1.2,3.1,1.2
			s2.6-0.7,3.1-1.2c0.4-0.5,0.9-1,1.9-0.8c3.2,0.4,5.6,1.1,6.2,1.3c0.2,0.1,0.9,0.4,0.9,0.4L41.8,25c0,0-0.7-0.3-0.9-0.4
			c-0.5-0.2-2.8-0.9-5.9-1.2v-0.2v0.2c-0.3-0.1-0.4,0-0.8,0.5C33.5,24.4,32.6,25.4,30.1,25.4z M34.9,22.1L34.9,22.1L34.9,22.1z"/>
	</g>
</g>
</svg>
