<?xml version="1.0" encoding="utf-8"?>
<!-- Generator: Adobe Illustrator 26.0.1, SVG Export Plug-In . SVG Version: 6.00 Build 0)  -->
<svg version="1.1" id="ICONE_x5F_piccole" xmlns="http://www.w3.org/2000/svg" xmlns:xlink="http://www.w3.org/1999/xlink" x="0px"
	 y="0px" viewBox="0 0 60 60" style="enable-background:new 0 0 60 60;" xml:space="preserve">
<style type="text/css">
	.st0{fill:#088F9C;}
</style>
<g>
	<path class="st0" d="M55,32.8c-2.7-1.8-4.1-0.8-6.4,0.7c-0.3,0.2-0.7,0.4-1,0.7c-1,0.6-1.9,1.2-3,1.8c-0.3,0.2-0.5,0.6-0.3,0.9
		c0.2,0.3,0.6,0.5,0.9,0.3c1.2-0.6,2.2-1.2,3.2-1.8c0.4-0.2,0.7-0.5,1.1-0.7c2.3-1.5,3-2,4.9-0.7c0.2,0.1,0.3,0.4,0.4,0.6
		s-0.1,0.5-0.3,0.7l-4.1,3.7c-0.7,0.7-1.4,1.3-2,1.9c-1,0.9-1.9,1.8-3,2.8L41.2,47c-0.8,0.7-1.8,1-2.9,1H25.8h-1
		c-0.4,0-0.7,0.3-0.7,0.7c0,0.4,0.3,0.7,0.7,0.7h1h12.5c1.4,0,2.7-0.5,3.7-1.4l4.1-3.5c1.2-1,2.1-1.9,3.1-2.8c0.6-0.6,1.3-1.2,2-1.9
		l4.1-3.7c0.5-0.4,0.7-1.1,0.7-1.7C55.9,33.7,55.6,33.1,55,32.8z"/>
	<path class="st0" d="M13.9,42.1l4.4-4.4c3.5-3.5,9.4-3.1,11.9-0.5c0.4,0.4,1.2,0.9,2,1l6.7,0.2c0.6,0,1.2,0.3,1.7,0.8
		c0.4,0.4,0.6,1,0.6,1.6c0,0.1,0,0.1,0,0.2C41.1,42,40,43,38.8,43H31c-0.4,0-0.7,0.3-0.7,0.7c0,0.4,0.3,0.7,0.7,0.7h7.8
		c1.9,0,3.5-1.5,3.7-3.4c0-0.1,0-0.2,0-0.3c0-0.9-0.3-1.8-1-2.5c-0.7-0.8-1.6-1.2-2.6-1.2l-6.7-0.2c-0.3,0-0.8-0.3-1-0.6
		c-3.1-3.1-9.8-3.5-13.8,0.5L13,41.1l-1.2-1.2c-0.3-0.3-0.7-0.3-0.9,0L3,47.7c-0.1,0.1-0.2,0.3-0.2,0.5c0,0.2,0.1,0.3,0.2,0.5
		c0.3,0.3,0.7,0.3,0.9,0l7.3-7.3l1.1,1.1c0,0,0,0.1,0.1,0.1c0,0,0.1,0,0.1,0.1l11.2,11.2l-4.1,4c-0.1,0.1-0.2,0.3-0.2,0.5
		c0,0.2,0.1,0.3,0.2,0.5S20,59,20.2,59c0.2,0,0.3-0.1,0.5-0.2l4.5-4.5c0.1-0.1,0.2-0.3,0.2-0.5s-0.1-0.3-0.2-0.5L13.9,42.1z"/>
	<path class="st0" d="M11.7,45.9L10,47.6c-0.1,0.1-0.2,0.3-0.2,0.5c0,0.2,0.1,0.3,0.2,0.5c0.1,0.1,0.3,0.2,0.5,0.2s0.3-0.1,0.5-0.2
		l1.7-1.7c0.1-0.1,0.2-0.3,0.2-0.5c0-0.2-0.1-0.3-0.2-0.5C12.4,45.7,11.9,45.7,11.7,45.9z"/>
	<path class="st0" d="M35.2,27.4h6.2c0.4,0,0.7-0.3,0.7-0.7v-5.4h5.4c0.4,0,0.7-0.3,0.7-0.7v-6.2c0-0.4-0.3-0.7-0.7-0.7H42v-1.2
		c0-0.4-0.3-0.7-0.7-0.7s-0.7,0.3-0.7,0.7v1.8c0,0.4,0.3,0.7,0.7,0.7h5.4V20h-5.4c-0.4,0-0.7,0.3-0.7,0.7v5.4h-4.9v-5.4
		c0-0.4-0.3-0.7-0.7-0.7h-5.4v-4.9h5.4c0.4,0,0.7-0.3,0.7-0.7V9h4.9v1.1c0,0.4,0.3,0.7,0.7,0.7s0.7-0.3,0.7-0.7V8.4
		c0-0.4-0.3-0.7-0.7-0.7h-6.2c-0.4,0-0.7,0.3-0.7,0.7v5.4h-5.4c-0.4,0-0.7,0.3-0.7,0.7v6.2c0,0.4,0.3,0.7,0.7,0.7h5.4v5.4
		C34.5,27.1,34.8,27.4,35.2,27.4z"/>
	<path class="st0" d="M37.9,34.6c0.1,0.1,0.2,0.1,0.4,0.1c0.1,0,0.3,0,0.4-0.1c0,0,3.2-2.2,6.9-5.3c0.3-0.2,0.3-0.7,0.1-0.9
		c-0.2-0.3-0.7-0.3-0.9-0.1c-2.9,2.5-5.4,4.3-6.4,5c-2.5-1.8-17.5-12.6-17.5-21.6c0-5.1,4.2-9.3,9.3-9.3c2.9,0,5.6,1.4,7.4,3.7
		c0.1,0.2,0.3,0.3,0.5,0.3h0.7c0.2,0,0.4-0.1,0.5-0.3c1.8-2.4,4.5-3.7,7.4-3.7c5.1,0,9.3,4.2,9.3,9.3c0,3.8-2.8,8.5-8,13.7
		c-0.3,0.3-0.3,0.7,0,0.9s0.7,0.3,0.9,0c5.5-5.5,8.3-10.4,8.3-14.6C57.2,5.8,52.4,1,46.5,1c-3.2,0-6.2,1.5-8.2,4l0,0
		c-2-2.5-5-4-8.2-4c-5.9,0-10.6,4.8-10.6,10.6C19.4,22.1,37.2,34.1,37.9,34.6z"/>
</g>
</svg>
