<?xml version="1.0" encoding="utf-8"?>
<!-- Generator: Adobe Illustrator 26.0.1, SVG Export Plug-In . SVG Version: 6.00 Build 0)  -->
<svg version="1.1" id="ICONE_x5F_piccole" xmlns="http://www.w3.org/2000/svg" xmlns:xlink="http://www.w3.org/1999/xlink" x="0px"
	 y="0px" viewBox="0 0 60 60" style="enable-background:new 0 0 60 60;" xml:space="preserve">
<style type="text/css">
	.st0{fill:#088F9C;}
</style>
<g>
	<path class="st0" d="M22.5,33.8C22.5,33.8,22.5,33.8,22.5,33.8c0.4,0,0.7-0.3,0.7-0.7c0-3.4,0-8.9,0.1-9.4c0.6-3.3,3.4-5.7,6.8-5.7
		c0.5,0,1.1,0.1,1.6,0.2c0,0,0,0,0.1,0c0.2,0,4.4,0.7,5,5.4l0.1,9.5c0,0.4,0.3,0.7,0.7,0.7c0,0,0,0,0,0c0.4,0,0.7-0.3,0.7-0.7
		L38,23.6c0,0,0,0,0-0.1c-0.6-5.6-5.5-6.5-6.1-6.6c-0.6-0.1-1.2-0.2-1.9-0.2c-4,0-7.4,2.8-8.1,6.8c-0.1,0.8-0.1,8.2-0.1,9.6
		C21.9,33.5,22.2,33.8,22.5,33.8z"/>
	<path class="st0" d="M34.2,25.1c-3.7,0-5.9-1.9-6.8-3c-0.3-0.4-0.8-0.5-1.2-0.3c-0.5,0.2-0.7,0.6-0.7,1.1v5.2
		c0,1.5,0.5,2.8,1.4,3.9c0.9,1,2.1,1.6,3.3,1.6c1.2,0,2.5-0.6,3.3-1.6c0.9-1,1.4-2.4,1.4-3.9v-2.4C34.8,25.4,34.5,25.1,34.2,25.1z
		 M33.5,28.2c0,1.1-0.4,2.2-1.1,3c-0.6,0.7-1.5,1.1-2.3,1.1c-0.9,0-1.7-0.4-2.3-1.1c-0.7-0.8-1.1-1.9-1.1-3v-4.8
		c1.2,1.2,3.4,2.8,6.8,3L33.5,28.2L33.5,28.2z"/>
	<path class="st0" d="M35.3,33.8c-0.3-0.1-0.5-0.2-0.8-0.2c-0.3-0.1-0.6,0-0.8,0.3l-2.2,3.7c-0.5,0.7-1,1-1.5,1l0,0
		c-0.5,0-1-0.4-1.2-0.8l-2.6-3.8c-0.2-0.2-0.5-0.3-0.8-0.2c-0.2,0.1-0.5,0.2-0.8,0.3c-2.2,0.7-5.4,1.8-5.4,4.6
		c0,0.4,0.3,0.7,0.7,0.7l0,0c0.4,0,0.7-0.3,0.7-0.7c0-1.8,2.6-2.7,4.5-3.3c0.1,0,0.2-0.1,0.4-0.1l2.4,3.5c0,0,0,0,0,0
		c0.7,0.9,1.5,1.3,2.3,1.3c0,0,0,0,0,0c0.6,0,1.6-0.3,2.6-1.6c0,0,0,0,0-0.1l1.9-3.2c0.1,0,0.2,0.1,0.3,0.1c1.9,0.6,4.8,1.5,4.8,3.6
		c0,0.4,0.3,0.7,0.7,0.7S41,39,41,38.6C41,35.6,37.5,34.5,35.3,33.8z"/>
	<path class="st0" d="M27.1,5.2c0.2,0,0.3-0.1,0.5-0.2l1.8-1.8v10c0,0.4,0.3,0.7,0.7,0.7c0.4,0,0.7-0.3,0.7-0.7v-10L32.4,5
		c0.3,0.3,0.7,0.3,0.9,0c0.3-0.3,0.3-0.7,0-0.9l-2.9-2.9c-0.2-0.2-0.7-0.2-0.9,0l-2.9,2.9c-0.3,0.3-0.3,0.7,0,0.9
		C26.8,5.1,26.9,5.2,27.1,5.2z"/>
	<path class="st0" d="M9.9,14.7c0.4,0,0.7-0.3,0.7-0.7v-2.5l7.1,7.1c0.1,0.1,0.3,0.2,0.5,0.2s0.3-0.1,0.5-0.2c0.3-0.3,0.3-0.7,0-0.9
		l-7.1-7.1H14V9.3c0,0-4,0-4.1,0l0,0c-0.4,0-0.7,0.3-0.7,0.7V14C9.3,14.4,9.6,14.7,9.9,14.7z"/>
	<path class="st0" d="M3.3,30.7h10c0.4,0,0.7-0.3,0.7-0.7c0-0.4-0.3-0.7-0.7-0.7h-10L5,27.6c0.3-0.3,0.3-0.7,0-0.9
		c-0.3-0.3-0.7-0.3-0.9,0l-2.9,2.9C1.1,29.7,1,29.8,1,30s0.1,0.3,0.2,0.5l2.9,2.9c0.1,0.1,0.3,0.2,0.5,0.2c0.2,0,0.3-0.1,0.5-0.2
		c0.3-0.3,0.3-0.7,0-0.9L3.3,30.7z"/>
	<path class="st0" d="M17.7,41.4l-7.1,7.1V46c0-0.4-0.3-0.7-0.7-0.7c-0.4,0-0.7,0.3-0.7,0.7c0,0,0,4,0,4.1l0,0
		c0,0.4,0.3,0.7,0.7,0.7H14c0.4,0,0.7-0.3,0.7-0.7c0-0.4-0.3-0.7-0.7-0.7h-2.5l7.1-7.1c0.3-0.3,0.3-0.7,0-0.9
		C18.4,41.1,18,41.1,17.7,41.4z"/>
	<path class="st0" d="M32.4,55l-1.8,1.8v-10c0-0.4-0.3-0.7-0.7-0.7c-0.4,0-0.7,0.3-0.7,0.7v10L27.6,55c-0.3-0.3-0.7-0.3-0.9,0
		c-0.3,0.3-0.3,0.7,0,0.9l2.9,2.9c0.1,0.1,0.3,0.2,0.5,0.2s0.3-0.1,0.5-0.2l2.9-2.9c0.3-0.3,0.3-0.7,0-0.9
		C33.1,54.7,32.7,54.7,32.4,55z"/>
	<path class="st0" d="M50,45.3c-0.4,0-0.7,0.3-0.7,0.7v2.5l-7.1-7.1c-0.3-0.3-0.7-0.3-0.9,0c-0.3,0.3-0.3,0.7,0,0.9l7.1,7.1H46
		c-0.4,0-0.7,0.3-0.7,0.7c0,0.4,0.3,0.7,0.7,0.7h4.1c0.2,0,0.3-0.1,0.5-0.2c0.1-0.1,0.2-0.3,0.2-0.5V46C50.7,45.6,50.4,45.3,50,45.3
		z"/>
	<path class="st0" d="M58.8,29.5l-2.9-2.9c-0.3-0.3-0.7-0.3-0.9,0c-0.3,0.3-0.3,0.7,0,0.9l1.8,1.8h-10c-0.4,0-0.7,0.3-0.7,0.7
		c0,0.4,0.3,0.7,0.7,0.7h10L55,32.4c-0.3,0.3-0.3,0.7,0,0.9c0.1,0.1,0.3,0.2,0.5,0.2c0.2,0,0.3-0.1,0.5-0.2l2.9-2.9
		C59.1,30.2,59.1,29.8,58.8,29.5z"/>
	<path class="st0" d="M41.8,18.8c0.2,0,0.3-0.1,0.5-0.2l7.1-7.1V14c0,0.4,0.3,0.7,0.7,0.7c0.4,0,0.7-0.3,0.7-0.7V9.9
		c0-0.4-0.3-0.7-0.7-0.7H46c-0.4,0-0.7,0.3-0.7,0.7c0,0.4,0.3,0.7,0.7,0.7h2.5l-7.1,7.1c-0.3,0.3-0.3,0.7,0,0.9
		C41.5,18.8,41.7,18.8,41.8,18.8z"/>
</g>
</svg>
