<?xml version="1.0" encoding="utf-8"?>
<!-- Generator: Adobe Illustrator 26.0.1, SVG Export Plug-In . SVG Version: 6.00 Build 0)  -->
<svg version="1.1" id="ICONE_x5F_piccole" xmlns="http://www.w3.org/2000/svg" xmlns:xlink="http://www.w3.org/1999/xlink" x="0px"
	 y="0px" viewBox="0 0 60 60" style="enable-background:new 0 0 60 60;" xml:space="preserve">
<style type="text/css">
	.st0{fill:#088F9C;}
</style>
<g>
	<g>
		<g>
			<path class="st0" d="M22.6,44.6c-0.4,0-0.7-0.3-0.7-0.7c0-2.5-1-4.6-3.1-6.6c-3.5-3.3-5.2-8.1-4.8-13c0.6-7.5,6.5-13.7,14-14.6
				c4.7-0.6,9.2,0.8,12.8,3.9c3.5,3.1,5.5,7.5,5.5,12.2c0,4.4-1.7,8.4-4.7,11.4c-2.1,2.1-3.2,4.3-3.3,6.8c0,0.4-0.3,0.6-0.7,0.6
				c-0.4,0-0.6-0.3-0.6-0.7c0.1-2.8,1.4-5.4,3.7-7.7c2.8-2.7,4.3-6.5,4.3-10.5c0-4.3-1.8-8.4-5-11.2c-3.2-2.8-7.4-4.1-11.7-3.6
				c-3.3,0.4-6.4,2-8.8,4.5c-2.3,2.5-3.8,5.6-4.1,9c-0.4,4.6,1.2,8.9,4.4,12c2.4,2.3,3.5,4.7,3.6,7.6C23.3,44.3,23,44.6,22.6,44.6
				C22.6,44.6,22.6,44.6,22.6,44.6z"/>
		</g>
		<g>
			<path class="st0" d="M32.1,59h-4c-0.2,0-0.5-0.1-0.6-0.3l-1.2-2.1l-4-2.4c-0.2-0.1-0.3-0.3-0.3-0.6v-1.3c0-0.4,0.3-0.7,0.7-0.7
				s0.7,0.3,0.7,0.7v1l3.8,2.3c0.1,0.1,0.2,0.1,0.2,0.2l1.1,1.9h3.3l1.1-1.9c0.1-0.1,0.1-0.2,0.2-0.2l3.8-2.3v-1
				c0-0.4,0.3-0.7,0.7-0.7s0.7,0.3,0.7,0.7v1.3c0,0.2-0.1,0.5-0.3,0.6l-4,2.4l-1.2,2.1C32.5,58.9,32.3,59,32.1,59z"/>
		</g>
		<g>
			<path class="st0" d="M37.4,48.8H22.6c-0.4,0-0.7-0.3-0.7-0.7s0.3-0.7,0.7-0.7h14.8c0.4,0,0.7,0.3,0.7,0.7S37.8,48.8,37.4,48.8z"
				/>
		</g>
		<g>
			<path class="st0" d="M29.5,35.1c0,0-0.1,0-0.1,0l-1.7-0.3c-0.3,0-0.5-0.3-0.5-0.5l-0.4-2c-0.4-0.2-0.7-0.4-1-0.6l-2,0.6
				c-0.3,0.1-0.6,0-0.7-0.2l-1-1.5c-0.2-0.2-0.2-0.5,0-0.8l1.2-1.7c-0.1-0.4-0.2-0.7-0.2-1.1l-1.8-1c-0.2-0.1-0.4-0.4-0.3-0.7
				l0.3-1.7c0-0.3,0.3-0.5,0.5-0.5l2-0.4c0.2-0.3,0.4-0.7,0.6-1l-0.6-2c-0.1-0.3,0-0.6,0.2-0.7l1.4-1c0.2-0.2,0.5-0.2,0.8,0l1.7,1.2
				c0.4-0.1,0.8-0.2,1.1-0.3l1-1.8c0.1-0.2,0.4-0.4,0.7-0.3l1.7,0.3c0.3,0,0.5,0.3,0.5,0.5l0.4,2c0.3,0.2,0.7,0.4,1,0.6l2-0.6
				c0.3-0.1,0.6,0,0.7,0.2l1,1.5c0.2,0.2,0.2,0.5,0,0.8l-1.2,1.7c0.1,0.4,0.2,0.7,0.2,1.1l1.8,1c0.2,0.1,0.4,0.4,0.3,0.7L39,28.3
				c0,0.3-0.3,0.5-0.5,0.5l-2,0.4c-0.2,0.3-0.4,0.7-0.6,1l0.6,2c0.1,0.3,0,0.6-0.2,0.7l-1.4,1c-0.2,0.2-0.5,0.2-0.8,0l-1.7-1.2
				c-0.4,0.1-0.8,0.2-1.1,0.3l-1,1.8C29.9,35,29.7,35.1,29.5,35.1z M28.3,33.6l0.8,0.1l1-1.7c0.1-0.2,0.3-0.3,0.5-0.3
				c0.5,0,1-0.2,1.5-0.3c0.2-0.1,0.4,0,0.6,0.1l1.6,1.1l0.7-0.5l-0.5-1.9c-0.1-0.2,0-0.4,0.1-0.6c0.3-0.4,0.6-0.8,0.8-1.3
				c0.1-0.2,0.3-0.3,0.5-0.4l1.9-0.3l0.1-0.8l-1.7-1c-0.2-0.1-0.3-0.3-0.3-0.5c0-0.5-0.2-1-0.3-1.5c-0.1-0.2,0-0.4,0.1-0.6l1.1-1.6
				L36.3,21l-1.9,0.5c-0.2,0.1-0.4,0-0.6-0.1c-0.4-0.3-0.8-0.6-1.3-0.8c-0.2-0.1-0.3-0.3-0.4-0.5l-0.3-1.9L31,18l-1,1.7
				c-0.1,0.2-0.3,0.3-0.5,0.3c-0.5,0-1,0.2-1.5,0.3c-0.2,0.1-0.4,0-0.6-0.1l-1.6-1.1l-0.7,0.5l0.5,1.9c0.1,0.2,0,0.4-0.1,0.6
				c-0.3,0.4-0.6,0.8-0.8,1.3c-0.1,0.2-0.3,0.3-0.5,0.4l-1.9,0.3l-0.1,0.8l1.7,1c0.2,0.1,0.3,0.3,0.3,0.5c0,0.5,0.2,1,0.3,1.5
				c0.1,0.2,0,0.4-0.1,0.6l-1.1,1.6l0.5,0.7l1.9-0.5c0.2-0.1,0.4,0,0.6,0.1c0.4,0.3,0.8,0.6,1.3,0.8c0.2,0.1,0.3,0.3,0.4,0.5
				L28.3,33.6z"/>
		</g>
		<g>
			<path class="st0" d="M30.8,29.2c-0.3,0-0.6-0.2-0.6-0.5c-0.1-0.4,0.1-0.7,0.5-0.8c0.8-0.2,1.4-0.9,1.6-1.7
				c0.2-1.1-0.6-2.2-1.7-2.4c-0.8-0.1-1.6,0.2-2.1,0.9c-0.2,0.3-0.6,0.4-0.9,0.2c-0.3-0.2-0.4-0.6-0.2-0.9c0.7-1.1,2.1-1.8,3.4-1.5
				c1.9,0.3,3.1,2.1,2.8,3.9c-0.2,1.4-1.2,2.4-2.6,2.7C30.9,29.2,30.8,29.2,30.8,29.2z"/>
		</g>
	</g>
	<g>
		<g>
			<path class="st0" d="M22.6,44.6c-0.4,0-0.7-0.3-0.7-0.7c0-2.5-1-4.6-3.1-6.6c-3.5-3.3-5.2-8.1-4.8-13c0.6-7.5,6.5-13.7,14-14.6
				c4.7-0.6,9.2,0.8,12.8,3.9c3.5,3.1,5.5,7.5,5.5,12.2c0,4.4-1.7,8.4-4.7,11.4c-2.1,2.1-3.2,4.3-3.3,6.8c0,0.4-0.3,0.6-0.7,0.6
				c-0.4,0-0.6-0.3-0.6-0.7c0.1-2.8,1.4-5.4,3.7-7.7c2.8-2.7,4.3-6.5,4.3-10.5c0-4.3-1.8-8.4-5-11.2c-3.2-2.8-7.4-4.1-11.7-3.6
				c-3.3,0.4-6.4,2-8.8,4.5c-2.3,2.5-3.8,5.6-4.1,9c-0.4,4.6,1.2,8.9,4.4,12c2.4,2.3,3.5,4.7,3.6,7.6C23.3,44.3,23,44.6,22.6,44.6
				C22.6,44.6,22.6,44.6,22.6,44.6z"/>
		</g>
		<g>
			<path class="st0" d="M32.1,59h-4c-0.2,0-0.5-0.1-0.6-0.3l-1.2-2.1l-4-2.4c-0.2-0.1-0.3-0.3-0.3-0.6v-1.3c0-0.4,0.3-0.7,0.7-0.7
				s0.7,0.3,0.7,0.7v1l3.8,2.3c0.1,0.1,0.2,0.1,0.2,0.2l1.1,1.9h3.3l1.1-1.9c0.1-0.1,0.1-0.2,0.2-0.2l3.8-2.3v-1
				c0-0.4,0.3-0.7,0.7-0.7s0.7,0.3,0.7,0.7v1.3c0,0.2-0.1,0.5-0.3,0.6l-4,2.4l-1.2,2.1C32.5,58.9,32.3,59,32.1,59z"/>
		</g>
		<g>
			<path class="st0" d="M37.4,48.8H22.6c-0.4,0-0.7-0.3-0.7-0.7s0.3-0.7,0.7-0.7h14.8c0.4,0,0.7,0.3,0.7,0.7S37.8,48.8,37.4,48.8z"
				/>
		</g>
		<g>
			<path class="st0" d="M29.5,35.1c0,0-0.1,0-0.1,0l-1.7-0.3c-0.3,0-0.5-0.3-0.5-0.5l-0.4-2c-0.4-0.2-0.7-0.4-1-0.6l-2,0.6
				c-0.3,0.1-0.6,0-0.7-0.2l-1-1.5c-0.2-0.2-0.2-0.5,0-0.8l1.2-1.7c-0.1-0.4-0.2-0.7-0.2-1.1l-1.8-1c-0.2-0.1-0.4-0.4-0.3-0.7
				l0.3-1.7c0-0.3,0.3-0.5,0.5-0.5l2-0.4c0.2-0.3,0.4-0.7,0.6-1l-0.6-2c-0.1-0.3,0-0.6,0.2-0.7l1.4-1c0.2-0.2,0.5-0.2,0.8,0l1.7,1.2
				c0.4-0.1,0.8-0.2,1.1-0.3l1-1.8c0.1-0.2,0.4-0.4,0.7-0.3l1.7,0.3c0.3,0,0.5,0.3,0.5,0.5l0.4,2c0.3,0.2,0.7,0.4,1,0.6l2-0.6
				c0.3-0.1,0.6,0,0.7,0.2l1,1.5c0.2,0.2,0.2,0.5,0,0.8l-1.2,1.7c0.1,0.4,0.2,0.7,0.2,1.1l1.8,1c0.2,0.1,0.4,0.4,0.3,0.7L39,28.3
				c0,0.3-0.3,0.5-0.5,0.5l-2,0.4c-0.2,0.3-0.4,0.7-0.6,1l0.6,2c0.1,0.3,0,0.6-0.2,0.7l-1.4,1c-0.2,0.2-0.5,0.2-0.8,0l-1.7-1.2
				c-0.4,0.1-0.8,0.2-1.1,0.3l-1,1.8C29.9,35,29.7,35.1,29.5,35.1z M28.3,33.6l0.8,0.1l1-1.7c0.1-0.2,0.3-0.3,0.5-0.3
				c0.5,0,1-0.2,1.5-0.3c0.2-0.1,0.4,0,0.6,0.1l1.6,1.1l0.7-0.5l-0.5-1.9c-0.1-0.2,0-0.4,0.1-0.6c0.3-0.4,0.6-0.8,0.8-1.3
				c0.1-0.2,0.3-0.3,0.5-0.4l1.9-0.3l0.1-0.8l-1.7-1c-0.2-0.1-0.3-0.3-0.3-0.5c0-0.5-0.2-1-0.3-1.5c-0.1-0.2,0-0.4,0.1-0.6l1.1-1.6
				L36.3,21l-1.9,0.5c-0.2,0.1-0.4,0-0.6-0.1c-0.4-0.3-0.8-0.6-1.3-0.8c-0.2-0.1-0.3-0.3-0.4-0.5l-0.3-1.9L31,18l-1,1.7
				c-0.1,0.2-0.3,0.3-0.5,0.3c-0.5,0-1,0.2-1.5,0.3c-0.2,0.1-0.4,0-0.6-0.1l-1.6-1.1l-0.7,0.5l0.5,1.9c0.1,0.2,0,0.4-0.1,0.6
				c-0.3,0.4-0.6,0.8-0.8,1.3c-0.1,0.2-0.3,0.3-0.5,0.4l-1.9,0.3l-0.1,0.8l1.7,1c0.2,0.1,0.3,0.3,0.3,0.5c0,0.5,0.2,1,0.3,1.5
				c0.1,0.2,0,0.4-0.1,0.6l-1.1,1.6l0.5,0.7l1.9-0.5c0.2-0.1,0.4,0,0.6,0.1c0.4,0.3,0.8,0.6,1.3,0.8c0.2,0.1,0.3,0.3,0.4,0.5
				L28.3,33.6z"/>
		</g>
		<g>
			<path class="st0" d="M30.8,29.2c-0.3,0-0.6-0.2-0.6-0.5c-0.1-0.4,0.1-0.7,0.5-0.8c0.8-0.2,1.4-0.9,1.6-1.7
				c0.2-1.1-0.6-2.2-1.7-2.4c-0.8-0.1-1.6,0.2-2.1,0.9c-0.2,0.3-0.6,0.4-0.9,0.2c-0.3-0.2-0.4-0.6-0.2-0.9c0.7-1.1,2.1-1.8,3.4-1.5
				c1.9,0.3,3.1,2.1,2.8,3.9c-0.2,1.4-1.2,2.4-2.6,2.7C30.9,29.2,30.8,29.2,30.8,29.2z"/>
		</g>
	</g>
	<g>
		<g>
			<path class="st0" d="M10.5,26.5H5.8c-0.4,0-0.7-0.3-0.7-0.7s0.3-0.7,0.7-0.7h4.6c0.4,0,0.7,0.3,0.7,0.7
				C11.1,26.2,10.8,26.5,10.5,26.5z"/>
		</g>
		<g>
			<path class="st0" d="M54.2,26.5h-4.6c-0.4,0-0.7-0.3-0.7-0.7s0.3-0.7,0.7-0.7h4.6c0.4,0,0.7,0.3,0.7,0.7
				C54.8,26.2,54.5,26.5,54.2,26.5z"/>
		</g>
	</g>
	<g>
		<g>
			<path class="st0" d="M9.1,38.6c-0.2,0-0.4-0.1-0.6-0.3c-0.2-0.3-0.1-0.7,0.2-0.9l4-2.3c0.3-0.2,0.7-0.1,0.9,0.2
				c0.2,0.3,0.1,0.7-0.2,0.9l-4,2.3C9.3,38.6,9.2,38.6,9.1,38.6z"/>
		</g>
		<g>
			<path class="st0" d="M46.9,16.7c-0.2,0-0.5-0.1-0.6-0.3c-0.2-0.3-0.1-0.7,0.2-0.9l4-2.3c0.3-0.2,0.7-0.1,0.9,0.2
				c0.2,0.3,0.1,0.7-0.2,0.9l-4,2.3C47.2,16.7,47,16.7,46.9,16.7z"/>
		</g>
	</g>
	<g>
		<g>
			<path class="st0" d="M39.8,9.6c-0.1,0-0.2,0-0.3-0.1c-0.3-0.2-0.4-0.6-0.2-0.9l2.3-4c0.2-0.3,0.6-0.4,0.9-0.2
				c0.3,0.2,0.4,0.6,0.2,0.9l-2.3,4C40.2,9.5,40,9.6,39.8,9.6z"/>
		</g>
	</g>
	<g>
		<g>
			<path class="st0" d="M30,7c-0.4,0-0.7-0.3-0.7-0.7V1.7C29.3,1.3,29.6,1,30,1s0.7,0.3,0.7,0.7v4.6C30.7,6.7,30.4,7,30,7z"/>
		</g>
	</g>
	<g>
		<g>
			<path class="st0" d="M20.2,9.6c-0.2,0-0.5-0.1-0.6-0.3l-2.3-4c-0.2-0.3-0.1-0.7,0.2-0.9c0.3-0.2,0.7-0.1,0.9,0.2l2.3,4
				c0.2,0.3,0.1,0.7-0.2,0.9C20.5,9.6,20.3,9.6,20.2,9.6z"/>
		</g>
	</g>
	<g>
		<g>
			<path class="st0" d="M50.9,38.6c-0.1,0-0.2,0-0.3-0.1l-4-2.3c-0.3-0.2-0.4-0.6-0.2-0.9c0.2-0.3,0.6-0.4,0.9-0.2l4,2.3
				c0.3,0.2,0.4,0.6,0.2,0.9C51.4,38.5,51.2,38.6,50.9,38.6z"/>
		</g>
		<g>
			<path class="st0" d="M13.1,16.7c-0.1,0-0.2,0-0.3-0.1l-4-2.3c-0.3-0.2-0.4-0.6-0.2-0.9c0.2-0.3,0.6-0.4,0.9-0.2l4,2.3
				c0.3,0.2,0.4,0.6,0.2,0.9C13.5,16.6,13.3,16.7,13.1,16.7z"/>
		</g>
	</g>
</g>
</svg>
