<?xml version="1.0" encoding="utf-8"?>
<!-- Generator: Adobe Illustrator 26.0.1, SVG Export Plug-In . SVG Version: 6.00 Build 0)  -->
<svg version="1.1" id="ICONE_x5F_piccole" xmlns="http://www.w3.org/2000/svg" xmlns:xlink="http://www.w3.org/1999/xlink" x="0px"
	 y="0px" viewBox="0 0 60 60" style="enable-background:new 0 0 60 60;" xml:space="preserve">
<style type="text/css">
	.st0{fill:none;}
	.st1{fill:#088F9C;}
</style>
<g>
	<path class="st0" d="M15.2,45.3c1.7,0,3.3-0.7,4.5-1.8c1.3-1.2,2-2.8,2-4.5v-0.8c-4.1-0.6-6.2-2.1-7.1-3c-1.3,1-3.2,2-5.8,2.4V39
		c0,1.7,0.7,3.3,1.9,4.5C11.8,44.6,13.5,45.3,15.2,45.3z"/>
	<polygon class="st0" points="16,51.9 17.1,49.2 13.2,49.2 14.3,51.9 	"/>
	<path class="st0" d="M14.1,33.9C14.1,33.9,14.1,33.9,14.1,33.9C14.2,33.9,14.2,33.8,14.1,33.9c1.2-1.1,1.7-2,1.7-2.1
		c0.2-0.3,0.5-0.5,0.9-0.3s0.5,0.6,0.3,0.9c0,0.1-0.5,1-1.5,2c0.8,0.7,2.6,1.9,6.1,2.5v-3.3c0-3.1-2.9-5.7-6.4-5.7s-6.4,2.5-6.4,5.7
		v2.8C11.3,35.9,13,34.9,14.1,33.9z"/>
	<path class="st0" d="M45.9,8.3v-6H14.1v6H45.9z M40.4,4.7h2.1c0.4,0,0.7,0.3,0.7,0.7c0,0.4-0.3,0.7-0.7,0.7h-2.1
		c-0.4,0-0.7-0.3-0.7-0.7C39.7,5,40,4.7,40.4,4.7z M34.2,4.7h2.1c0.4,0,0.7,0.3,0.7,0.7c0,0.4-0.3,0.7-0.7,0.7h-2.1
		c-0.4,0-0.7-0.3-0.7-0.7C33.5,5,33.8,4.7,34.2,4.7z M17.5,6c-0.4,0-0.7-0.3-0.7-0.7c0-0.4,0.3-0.7,0.7-0.7h12.6
		c0.4,0,0.7,0.3,0.7,0.7c0,0.4-0.3,0.7-0.7,0.7H17.5z"/>
	<path class="st0" d="M40.5,34.7v6.7c0,1.5,0.5,3,1.4,4c0.8,1,2,1.5,3.2,1.5c1.2,0,2.3-0.5,3.2-1.5c0.9-1.1,1.4-2.5,1.4-4.1v-2.5
		C44.8,38.6,41.9,36.2,40.5,34.7z"/>
	<path class="st1" d="M34.8,35.2c-0.2,1-0.2,11.3-0.2,12.5c0,0.4,0.3,0.7,0.7,0.7l0,0c0.4,0,0.7-0.3,0.7-0.7c0-4.4,0-11.5,0.1-12.2
		c0.8-4.4,4.5-7.5,8.9-7.5c0.7,0,1.4,0.1,2.2,0.3c0.1,0,5.9,0.9,6.6,7.2l0.1,12.3c0,0.4,0.3,0.7,0.7,0.7c0,0,0,0,0,0
		c0.4,0,0.7-0.3,0.7-0.7l-0.1-12.4c-0.8-7.4-7.7-8.4-7.7-8.4c-0.8-0.2-1.6-0.3-2.4-0.3C39.9,26.6,35.6,30.2,34.8,35.2z"/>
	<path class="st1" d="M41.3,33.6c-0.3-0.4-0.9-0.5-1.3-0.3c-0.5,0.2-0.8,0.7-0.8,1.3v6.7c0,1.8,0.6,3.6,1.7,4.9c1.1,1.3,2.6,2,4.2,2
		c1.6,0,3.1-0.7,4.2-2c1.1-1.3,1.8-3.1,1.8-4.9v-3.1c0-0.4-0.3-0.7-0.7-0.7C45.5,37.5,42.6,35.1,41.3,33.6z M49.6,41.3
		c0,1.5-0.5,3-1.4,4.1c-0.8,1-2,1.5-3.2,1.5s-2.3-0.5-3.2-1.5c-0.9-1.1-1.4-2.5-1.4-4v-6.7c1.4,1.6,4.4,4,9.2,4.2
		C49.6,38.8,49.6,41.3,49.6,41.3z"/>
	<path class="st1" d="M51.8,48.7c-0.4-0.1-0.7-0.2-1-0.3c-0.3-0.1-0.6,0-0.8,0.3l-2.8,4.7c-0.7,0.9-1.5,1.4-2.2,1.4l0,0
		c-0.8,0-1.4-0.6-1.8-1.1l-3.4-5c-0.2-0.2-0.5-0.3-0.8-0.2c-0.3,0.1-0.7,0.2-1.1,0.4c-2.7,0.9-6.9,2.3-6.9,5.7v3.8
		c0,0.4,0.3,0.7,0.7,0.7s0.7-0.3,0.7-0.7v-3.8c0-2.5,3.4-3.7,6-4.5c0.2-0.1,0.4-0.1,0.6-0.2l3.2,4.6c0.8,1.1,1.8,1.6,2.8,1.6
		c0,0,0,0,0,0c0.8,0,2-0.3,3.3-2l2.6-4.3c0.2,0,0.3,0.1,0.5,0.2c2.5,0.8,6.3,2.1,6.3,4.9v3.5c0,0.4,0.3,0.7,0.7,0.7s0.7-0.3,0.7-0.7
		v-3.5C59,51.1,54.5,49.6,51.8,48.7z"/>
	<path class="st1" d="M25.8,49.3l-4.4-0.8c-0.3-0.1-0.6,0.1-0.7,0.4L18,55l-0.9-2.4l1.6-3.8c0.1-0.2,0.1-0.4-0.1-0.6
		c-0.1-0.2-0.3-0.3-0.5-0.3h-5.9c-0.2,0-0.4,0.1-0.6,0.3s-0.1,0.4-0.1,0.6l1.6,3.8l-1,2.2l-2.6-6c-0.1-0.3-0.4-0.4-0.7-0.4l-4.3,0.8
		c-2,0.3-3.5,2-3.5,4.1v5C1,58.7,1.3,59,1.7,59s0.7-0.3,0.7-0.7v-5c0-1.4,1-2.6,2.4-2.8l3.8-0.7l3.8,8.7c0.1,0.3,0.5,0.5,0.9,0.3
		c0.3-0.2,0.5-0.5,0.3-0.9l-0.6-1.5l1.4-3.2H16l1.2,3.4c0,0,0,0,0,0.1l-0.5,1.2c-0.1,0.3,0,0.7,0.3,0.9c0.3,0.2,0.7,0,0.9-0.3
		l3.8-8.6l3.9,0.7c1.4,0.2,2.4,1.4,2.4,2.8v5c0,0.4,0.3,0.7,0.7,0.7s0.7-0.3,0.7-0.7v-5C29.3,51.3,27.8,49.5,25.8,49.3z M17.1,49.2
		L16,51.9h-1.7l-1.1-2.7H17.1z"/>
	<path class="st1" d="M15.2,46.6c2,0,4-0.8,5.4-2.2c1.5-1.5,2.4-3.4,2.4-5.5v-5.4c0-3.9-3.5-7-7.8-7s-7.8,3.1-7.8,7V39
		c0,2,0.8,4,2.3,5.4C11.2,45.8,13.1,46.6,15.2,46.6z M15.2,27.9c3.5,0,6.4,2.5,6.4,5.7v3.3c-3.5-0.6-5.3-1.8-6.1-2.5
		c1-1,1.5-1.9,1.5-2c0.2-0.3,0-0.7-0.3-0.9s-0.7,0-0.9,0.3c0,0.1-0.5,1-1.6,2c0,0,0,0,0,0c0,0,0,0-0.1,0c-1.1,1-2.8,2-5.4,2.5v-2.8
		C8.7,30.5,11.6,27.9,15.2,27.9z M8.7,37.7c2.6-0.5,4.5-1.4,5.8-2.4c0.9,0.8,3,2.3,7.1,3V39c0,1.7-0.7,3.3-2,4.5
		c-1.2,1.1-2.8,1.8-4.5,1.8s-3.3-0.7-4.5-1.8c-1.2-1.2-1.9-2.8-1.9-4.5L8.7,37.7L8.7,37.7z"/>
	<path class="st1" d="M42.5,17.1c0.4,0,0.7-0.3,0.7-0.7s-0.3-0.7-0.7-0.7h-2.1c-0.4,0-0.7,0.3-0.7,0.7s0.3,0.7,0.7,0.7H42.5z"/>
	<path class="st1" d="M36.3,17.1c0.4,0,0.7-0.3,0.7-0.7s-0.3-0.7-0.7-0.7h-2.1c-0.4,0-0.7,0.3-0.7,0.7s0.3,0.7,0.7,0.7H36.3z"/>
	<path class="st1" d="M30.7,16.5c0-0.4-0.3-0.7-0.7-0.7H17.5c-0.4,0-0.7,0.3-0.7,0.7s0.3,0.7,0.7,0.7h12.6
		C30.4,17.1,30.7,16.8,30.7,16.5z"/>
	<path class="st1" d="M40.4,6h2.1c0.4,0,0.7-0.3,0.7-0.7c0-0.4-0.3-0.7-0.7-0.7h-2.1c-0.4,0-0.7,0.3-0.7,0.7C39.7,5.7,40,6,40.4,6z"
		/>
	<path class="st1" d="M34.2,6h2.1c0.4,0,0.7-0.3,0.7-0.7c0-0.4-0.3-0.7-0.7-0.7h-2.1c-0.4,0-0.7,0.3-0.7,0.7C33.5,5.7,33.8,6,34.2,6
		z"/>
	<path class="st1" d="M30.7,5.3c0-0.4-0.3-0.7-0.7-0.7H17.5c-0.4,0-0.7,0.3-0.7,0.7c0,0.4,0.3,0.7,0.7,0.7h12.6
		C30.4,6,30.7,5.7,30.7,5.3z"/>
	<path class="st1" d="M34.3,29.9c0-0.4-0.3-0.7-0.7-0.7h-2.1v-8.5h15c0.4,0,0.7-0.3,0.7-0.7v-7.3c0-0.4-0.3-0.7-0.7-0.7H30.9V9.7
		h15.7c0.4,0,0.7-0.3,0.7-0.7V1.7c0-0.4-0.3-0.7-0.6-0.7H13.4c-0.4,0-0.7,0.3-0.7,0.7V9c0,0.4,0.3,0.7,0.7,0.7h16.1v2.5H13.4
		c-0.4,0-0.7,0.3-0.7,0.7v7.3c0,0.4,0.3,0.7,0.7,0.7h3.9c0.4,0,0.7-0.3,0.7-0.7c0-0.4-0.3-0.7-0.7-0.7h-3.3v-6h31.8v6H21.5
		c-0.4,0-0.7,0.3-0.7,0.7c0,0.4,0.3,0.7,0.7,0.7H27v11.3h-2c-0.4,0-0.7,0.3-0.7,0.7s0.3,0.7,0.7,0.7h2.7c0.4,0,0.7-0.3,0.7-0.7V20.8
		h1.9v9.1c0,0.4,0.3,0.7,0.7,0.7h2.7C34,30.5,34.3,30.2,34.3,29.9z M14.1,2.3h31.8v6H14.1V2.3z"/>
</g>
</svg>
