<?xml version="1.0" encoding="utf-8"?>
<!-- Generator: Adobe Illustrator 26.0.1, SVG Export Plug-In . SVG Version: 6.00 Build 0)  -->
<svg version="1.1" id="ICONE_x5F_piccole" xmlns="http://www.w3.org/2000/svg" xmlns:xlink="http://www.w3.org/1999/xlink" x="0px"
	 y="0px" viewBox="0 0 60 60" style="enable-background:new 0 0 60 60;" xml:space="preserve">
<style type="text/css">
	.st0{fill:#088F9C;}
</style>
<g>
	<g>
		<g>
			<path class="st0" d="M37.2,32.2c-0.4,0-0.7-0.3-0.7-0.7c0-1.3,0-12.5,0.2-13.6c1-5.4,5.7-9.4,11.1-9.4c0.9,0,1.8,0.1,2.6,0.3
				c0.6,0.1,7.5,1.4,8.4,9.1c0,0,0,0,0,0.1L59,30c0,0.4-0.3,0.7-0.7,0.7c-0.4,0-0.7-0.3-0.7-0.6l-0.1-11.9c-0.8-7-7-7.9-7.3-7.9
				c0,0,0,0-0.1,0c-0.8-0.2-1.5-0.3-2.3-0.3c-4.8,0-9,3.5-9.8,8.3c-0.1,0.8-0.2,8.4-0.2,13.4C37.9,31.9,37.6,32.2,37.2,32.2
				L37.2,32.2z"/>
		</g>
		<g>
			<path class="st0" d="M47.9,32.1c-1.7,0-3.3-0.8-4.5-2.2c0,0,0,0,0,0c-1.2-1.4-1.9-3.3-1.9-5.3v-7.4c0-0.6,0.3-1.1,0.9-1.3
				c0.5-0.2,1-0.1,1.4,0.4c1.4,1.6,4.6,4.3,9.9,4.3c0.4,0,0.7,0.3,0.7,0.7v3.4c0,2-0.7,3.9-1.9,5.4C51.3,31.3,49.6,32.1,47.9,32.1z
				 M42.9,17.1C42.9,17.2,42.9,17.2,42.9,17.1v7.4c0,1.7,0.6,3.3,1.6,4.5c0,0,0,0,0,0c0.9,1.1,2.2,1.7,3.5,1.7s2.6-0.6,3.5-1.7
				c1-1.2,1.6-2.8,1.6-4.5v-2.8C47.7,21.6,44.4,18.9,42.9,17.1z"/>
		</g>
	</g>
	<g>
		<g>
			<g>
				<path class="st0" d="M10.9,34c-2.6,0-5.1-1-6.9-2.7c-1.9-1.8-3-4.3-3-6.9v-7c0-0.4,0.3-0.7,0.7-0.7s0.7,0.3,0.7,0.7v7
					c0,2.2,0.9,4.3,2.6,5.9c1.6,1.5,3.7,2.4,6,2.4c2.2,0,4.4-0.9,5.9-2.4c1.7-1.6,2.6-3.7,2.6-6v-7c0-0.4,0.3-0.7,0.7-0.7
					s0.7,0.3,0.7,0.7v7c0,2.6-1.1,5.1-3,6.9C15.9,33,13.4,34,10.9,34z"/>
			</g>
		</g>
		<g>
			<path class="st0" d="M1.7,22.7c-0.3,0-0.6-0.2-0.6-0.6c-0.1-0.4,0.2-0.7,0.6-0.7c4.1-0.5,6.6-2.2,8.1-3.5
				c1.6-1.4,2.2-2.7,2.2-2.7c0.2-0.3,0.6-0.5,0.9-0.3s0.5,0.6,0.3,0.9C13,16,10.3,21.5,1.8,22.7C1.7,22.7,1.7,22.7,1.7,22.7z"/>
		</g>
		<g>
			<path class="st0" d="M20.1,23.3C20,23.3,20,23.3,20.1,23.3c-7.8-1-10.4-4.4-10.5-4.5c-0.2-0.3-0.2-0.7,0.1-0.9
				c0.3-0.2,0.7-0.2,0.9,0.1c0,0,0.6,0.8,2.1,1.7c1.4,0.8,3.8,1.9,7.4,2.3c0.4,0,0.6,0.4,0.6,0.7C20.7,23,20.4,23.3,20.1,23.3z"/>
		</g>
		<g>
			<path class="st0" d="M20.1,18c-0.4,0-0.7-0.3-0.7-0.7c0-4.2-3.8-7.6-8.5-7.6s-8.5,3.4-8.5,7.6C2.3,17.7,2,18,1.7,18
				S1,17.7,1,17.4c0-4.9,4.4-8.9,9.9-8.9s9.9,4,9.9,8.9C20.7,17.8,20.4,18,20.1,18z"/>
		</g>
	</g>
	<g>
		<g>
			<g>
				<g>
					<g>
						<g>
							<path class="st0" d="M26.1,41.7c-0.4,0-0.7-0.3-0.7-0.7v-5.1c0-0.4,0.3-0.7,0.7-0.7s0.7,0.3,0.7,0.7V41
								C26.7,41.4,26.4,41.7,26.1,41.7z"/>
						</g>
					</g>
					<g>
						<g>
							<path class="st0" d="M34.9,41.7c-0.4,0-0.7-0.3-0.7-0.7v-5.1c0-0.4,0.3-0.7,0.7-0.7s0.7,0.3,0.7,0.7V41
								C35.6,41.4,35.3,41.7,34.9,41.7z"/>
						</g>
					</g>
				</g>
				<g>
					<path class="st0" d="M32.3,44.1c-0.4,0-0.7-0.3-0.7-0.7v-9c0-0.1,0-0.1-0.1-0.1h-2.2c-0.1,0-0.1,0-0.1,0.1v9
						c0,0.4-0.3,0.7-0.7,0.7S28,43.8,28,43.5v-9c0-0.8,0.6-1.4,1.4-1.4h2.2c0.8,0,1.4,0.6,1.4,1.4v9C33,43.8,32.7,44.1,32.3,44.1z"
						/>
				</g>
				<g>
					<path class="st0" d="M40.8,47.2H20.2c-0.6,0-1.1-0.5-1.1-1.1v-1.8c0-0.6,0.4-1,1-1.1c0.2-1.8,1.1-3.7,2.6-5.3
						c1.6-1.8,3.7-3,5.9-3.5c0.4-0.1,0.7,0.2,0.8,0.5c0.1,0.4-0.1,0.7-0.5,0.8c-3.3,0.7-7.2,4.1-7.5,7.8c0,0.5-0.4,0.9-0.9,1v1.5
						h20.2v-1.5c-0.5-0.1-0.9-0.5-0.9-1c-0.3-3.7-4.2-7.1-7.5-7.8c-0.4-0.1-0.6-0.4-0.5-0.8c0.1-0.4,0.4-0.6,0.8-0.5
						c2.2,0.5,4.3,1.7,5.9,3.5c1.5,1.6,2.4,3.6,2.6,5.3c0.5,0.1,1,0.5,1,1.1V46C41.9,46.7,41.4,47.2,40.8,47.2z"/>
				</g>
			</g>
			<g>
				<path class="st0" d="M40.7,44.4H20.2c-0.4,0-0.7-0.3-0.7-0.7s0.3-0.7,0.7-0.7h20.5c0.4,0,0.7,0.3,0.7,0.7S41.1,44.4,40.7,44.4z"
					/>
			</g>
		</g>
		<g>
			<path class="st0" d="M30.5,59c-4.9,0-8.8-4-8.8-8.8v-3.7c0-0.4,0.3-0.7,0.7-0.7h16.3c0.4,0,0.7,0.3,0.7,0.7v3.7
				C39.3,55,35.3,59,30.5,59z M23,47.2v3c0,4.1,3.4,7.5,7.5,7.5s7.5-3.3,7.5-7.5v-3H23z"/>
		</g>
	</g>
	<g>
		<path class="st0" d="M19.9,57.2c-0.1,0-0.1,0-0.2,0c-4.9-1.8-9.2-5-12.5-9.1C3.8,44,1.7,39,1,33.7C0.9,33.4,1.2,33,1.6,33
			c0.4,0,0.7,0.2,0.7,0.6c0.7,5,2.7,9.8,5.8,13.7c3.1,3.9,7.3,6.9,11.9,8.7c0.3,0.1,0.5,0.5,0.4,0.8C20.4,57.1,20.1,57.2,19.9,57.2z
			"/>
	</g>
	<g>
		<path class="st0" d="M41,56.7c-0.3,0-0.5-0.2-0.6-0.4c-0.1-0.3,0-0.7,0.3-0.9c8.8-3.8,15.1-11.9,16.5-21.3c0-0.4,0.4-0.6,0.8-0.6
			s0.6,0.4,0.6,0.8c-0.7,4.9-2.8,9.6-5.8,13.5c-3,3.9-7,6.9-11.5,8.9C41.2,56.7,41.1,56.7,41,56.7z"/>
	</g>
	<g>
		<path class="st0" d="M15.4,6.3c-0.2,0-0.4-0.1-0.6-0.3c-0.2-0.3-0.1-0.7,0.2-0.9C19.5,2.4,24.6,1,29.9,1C35,1,40,2.3,44.4,4.9
			c0.3,0.2,0.4,0.6,0.2,0.9c-0.2,0.3-0.6,0.4-0.9,0.2c-4.2-2.4-9-3.7-13.9-3.7c-5,0-9.9,1.4-14.2,3.9C15.6,6.3,15.5,6.3,15.4,6.3z"
			/>
	</g>
</g>
</svg>
